<?xml version="1.0" encoding="UTF-8"?>
<svg width="16px" height="18px" viewBox="0 0 16 18" version="1.1" xmlns="http://www.w3.org/2000/svg" xmlns:xlink="http://www.w3.org/1999/xlink">
    <!-- Generator: sketchtool 50.2 (55047) - http://www.bohemiancoding.com/sketch -->
    <title>CCCC8691-6806-4484-933A-FDD019C21073</title>
    <desc>Created with sketchtool.</desc>
    <defs></defs>
    <g id="User-Setup-and-Edit" stroke="none" stroke-width="1" fill="none" fill-rule="evenodd">
        <g id="StyleGuide" transform="translate(-988.000000, -944.000000)" fill="#3C8CE2">
            <g id="Elements/Input/Select-Calendar-Placeholder" transform="translate(977.000000, 917.000000)">
                <g id="Icon/UI/calendar" transform="translate(11.000000, 27.000000)">
                    <g id="launch--glyph">
                        <path d="M0,2 L0,5.2 L0,18 L16,18 L16,5.2 L16,2 L0,2 L0,2 Z M2,16 L2,6 L14,6 L14,16 L2,16 Z" id="Shape"></path>
                        <path d="M2.05978483,4.25987775 L2.05978483,0.304338111 L4.05978483,0.304338111 L4.05978483,4.25987775 L2.05978483,4.25987775 Z M12.0597848,4.25987775 L12.0597848,0.304338111 L14.0597848,0.304338111 L14.0597848,4.25987775 L12.0597848,4.25987775 Z" id="Combined-Shape" fill-rule="nonzero"></path>
                    </g>
                    <path d="M8.81587467,8.03948216 L7.91187467,8.03948216 C7.78387467,8.89548216 7.06387467,9.17548216 6.27187467,9.15148216 L6.27187467,10.0074822 L7.67987467,10.0074822 L7.67987467,13.6394822 L8.81587467,13.6394822 L8.81587467,8.03948216 Z" id="1"></path>
                </g>
            </g>
        </g>
    </g>
</svg>