<?xml version="1.0" encoding="UTF-8"?>
<svg width="14px" height="8px" viewBox="0 0 14 8" version="1.1" xmlns="http://www.w3.org/2000/svg" xmlns:xlink="http://www.w3.org/1999/xlink">
    <!-- Generator: sketchtool 50.2 (55047) - http://www.bohemiancoding.com/sketch -->
    <title>4D74BB15-83C4-427A-8014-5C159B87E548</title>
    <desc>Created with sketchtool.</desc>
    <defs></defs>
    <g id="User-Setup-and-Edit" stroke="none" stroke-width="1" fill="none" fill-rule="evenodd">
        <g id="StyleGuide" transform="translate(-741.000000, -976.000000)" fill="#FFFFFF">
            <g id="Elements-/-Accordion-Table-/-Collapsed(3)" transform="translate(134.000000, 870.000000)">
                <g id="Accordion-Table">
                    <g id="Elements/Accordion-Copy-5" transform="translate(0.000000, 82.000000)">
                        <g id="ICONS/Arrow" transform="translate(607.000000, 24.000000)">
                            <g id="ICONS/ic_collapse_arrow-Copy" transform="translate(7.000000, 4.000000) rotate(-180.000000) translate(-7.000000, -4.000000) ">
                                <path d="M3.65292236,10.3675265 C3.44902588,10.5865003 3.44902588,10.9383271 3.65292236,11.155697 C3.85681884,11.3730671 4.18623007,11.373869 4.39012655,11.155697 L10.3470776,4.78916554 C10.5509741,4.57179555 10.5509741,4.2199845 10.3470776,4.00099498 L4.39012655,-2.36553654 C4.18623007,-2.58290652 3.85681884,-2.58290652 3.65292236,-2.36553654 C3.44902588,-2.14736464 3.44902588,-1.79473597 3.65292236,-1.57736598 L9.08568909,4.39548094 L3.65292236,10.367526 L3.65292236,10.3675265 L3.65292236,10.3675265 L3.65292236,10.3675265 Z" id="ic_collapse_arrow-copy" transform="translate(7.000000, 4.395231) rotate(-90.000000) translate(-7.000000, -4.395231) "></path>
                            </g>
                        </g>
                    </g>
                </g>
            </g>
        </g>
    </g>
</svg>