<?xml version="1.0" encoding="UTF-8"?>
<svg width="16px" height="16px" viewBox="0 0 16 16" version="1.1" xmlns="http://www.w3.org/2000/svg" xmlns:xlink="http://www.w3.org/1999/xlink">
    <!-- Generator: sketchtool 50.2 (55047) - http://www.bohemiancoding.com/sketch -->
    <title>2C19E344-8896-4172-8CA7-CBFA817AA41A</title>
    <desc>Created with sketchtool.</desc>
    <defs></defs>
    <g id="User-Setup-and-Edit" stroke="none" stroke-width="1" fill="none" fill-rule="evenodd">
        <g id="Contract-18" transform="translate(-1872.000000, -40.000000)" fill="#3F9BFC">
            <g id="Header" transform="translate(992.000000, 21.000000)">
                <g id="ICONS/ic_close" transform="translate(876.000000, 15.000000)">
                    <path d="M12,13.015988 L5.11388924,19.8112846 C4.85873665,20.0633682 4.44651703,20.0624417 4.19136444,19.8112846 C3.93621185,19.5601275 3.93621185,19.1536143 4.19136444,18.9006041 L10.9898364,12.0002892 L4.19136444,5.09904824 C3.93621185,4.84789118 3.93621185,4.4404514 4.19136444,4.18836778 C4.44651703,3.93721074 4.85873665,3.93721074 5.11388924,4.18836778 L12,10.9836644 L18.8861108,4.18836778 C19.1412634,3.93721074 19.553483,3.93721074 19.8086356,4.18836778 C20.0637881,4.4404514 20.0637881,4.84789118 19.8086356,5.09904824 L13.0101636,12.0002892 L19.8086356,18.9006036 C20.0637881,19.1536143 20.0637881,19.5601275 19.8086356,19.8112846 C19.553483,20.0624417 19.1412634,20.0633682 18.8861108,19.8112846 L12,13.015988 Z" id="-g-ic_close_pink"></path>
                </g>
            </g>
        </g>
    </g>
</svg>